<?xml version="1.0" encoding="UTF-8"?>
<!DOCTYPE svg PUBLIC "-//W3C//DTD SVG 1.1//EN" "http://www.w3.org/Graphics/SVG/1.1/DTD/svg11.dtd">
<svg xmlns="http://www.w3.org/2000/svg" version="1.1" width="700px" height="440px" style="shape-rendering:geometricPrecision; text-rendering:geometricPrecision; image-rendering:optimizeQuality; fill-rule:evenodd; clip-rule:evenodd" xmlns:xlink="http://www.w3.org/1999/xlink">
<g><path style="opacity:1" fill="#fefefe" d="M -0.5,-0.5 C 232.833,-0.5 466.167,-0.5 699.5,-0.5C 699.5,146.167 699.5,292.833 699.5,439.5C 466.167,439.5 232.833,439.5 -0.5,439.5C -0.5,292.833 -0.5,146.167 -0.5,-0.5 Z"/></g>
<g><path style="opacity:1" fill="#f4a2f4" d="M 247.5,170.5 C 249.353,183.138 251.02,195.805 252.5,208.5C 239.521,196.188 226.854,183.521 214.5,170.5C 225.66,169.176 236.66,169.176 247.5,170.5 Z"/></g>
<g><path style="opacity:1" fill="#f41ae9" d="M 247.5,170.5 C 254.833,177.5 262.167,184.5 269.5,191.5C 272.462,194.964 275.629,198.297 279,201.5C 280.242,194.637 281.076,187.637 281.5,180.5C 284.167,177.167 287.167,174.167 290.5,171.5C 291.268,177.661 291.268,183.994 290.5,190.5C 290.133,196.172 289.633,201.839 289,207.5C 270.299,226.368 251.465,245.035 232.5,263.5C 231.957,263.44 231.624,263.107 231.5,262.5C 239.856,252.645 248.022,242.645 256,232.5C 255.428,224.325 254.261,216.325 252.5,208.5C 251.02,195.805 249.353,183.138 247.5,170.5 Z"/></g>
<g><path style="opacity:1" fill="#f4a2f4" d="M 290.5,190.5 C 291.268,183.994 291.268,177.661 290.5,171.5C 290.783,170.711 291.283,170.044 292,169.5C 297.649,175.983 303.483,182.317 309.5,188.5C 303.244,189.892 296.911,190.559 290.5,190.5 Z"/></g>
<g><path style="opacity:1" fill="#fe4eed" d="M 281.5,180.5 C 281.076,187.637 280.242,194.637 279,201.5C 275.629,198.297 272.462,194.964 269.5,191.5C 273.5,187.833 277.5,184.167 281.5,180.5 Z"/></g>
<g><path style="opacity:1" fill="#101010" d="M 423.5,198.5 C 425.833,198.5 428.167,198.5 430.5,198.5C 430.334,205.508 430.5,212.508 431,219.5C 433.797,215.701 436.964,212.201 440.5,209C 442.833,208.333 445.167,208.333 447.5,209C 444.486,212.678 441.486,216.345 438.5,220C 441.819,224.656 445.152,229.323 448.5,234C 446.167,234.667 443.833,234.667 441.5,234C 438.967,230.472 436.134,227.306 433,224.5C 432.228,224.645 431.561,224.978 431,225.5C 430.502,228.482 430.335,231.482 430.5,234.5C 428.167,234.5 425.833,234.5 423.5,234.5C 423.5,222.5 423.5,210.5 423.5,198.5 Z"/></g>
<g><path style="opacity:1" fill="#161616" d="M 454.5,198.5 C 459.51,197.91 461.176,199.91 459.5,204.5C 453.74,206.212 452.074,204.212 454.5,198.5 Z"/></g>
<g><path style="opacity:1" fill="#121212" d="M 322.5,200.5 C 324.833,200.5 327.167,200.5 329.5,200.5C 330.699,208.629 332.532,216.629 335,224.5C 337,217.167 339,209.833 341,202.5C 343.376,200.256 346.043,199.923 349,201.5C 350.531,209.291 352.531,216.958 355,224.5C 357.464,216.645 359.297,208.645 360.5,200.5C 362.924,200.192 365.257,200.526 367.5,201.5C 364.36,212.393 361.693,223.393 359.5,234.5C 356.833,234.5 354.167,234.5 351.5,234.5C 349.804,226.05 347.638,217.717 345,209.5C 342.987,217.516 340.987,225.516 339,233.5C 336.281,234.444 333.448,234.777 330.5,234.5C 328.037,223.114 325.371,211.78 322.5,200.5 Z"/></g>
<g><path style="opacity:1" fill="#101010" d="M 378.5,208.5 C 391.196,208.026 396.696,214.026 395,226.5C 389.949,234.741 383.115,236.575 374.5,232C 370.716,227.139 369.549,221.639 371,215.5C 372.742,212.254 375.242,209.921 378.5,208.5 Z"/></g>
<g><path style="opacity:1" fill="#151515" d="M 401.5,208.5 C 403.5,208.5 405.5,208.5 407.5,208.5C 407.317,214.316 408.65,214.816 411.5,210C 413.677,208.798 416.011,208.298 418.5,208.5C 418.5,210.833 418.5,213.167 418.5,215.5C 414.713,214.814 411.546,215.814 409,218.5C 408.501,223.823 408.334,229.156 408.5,234.5C 406.167,234.5 403.833,234.5 401.5,234.5C 401.5,225.833 401.5,217.167 401.5,208.5 Z"/></g>
<g><path style="opacity:1" fill="#111111" d="M 453.5,208.5 C 455.833,208.5 458.167,208.5 460.5,208.5C 460.5,217.167 460.5,225.833 460.5,234.5C 458.167,234.5 455.833,234.5 453.5,234.5C 453.5,225.833 453.5,217.167 453.5,208.5 Z"/></g>
<g><path style="opacity:1" fill="#080808" d="M 466.5,208.5 C 472.833,208.5 479.167,208.5 485.5,208.5C 485.66,210.199 485.494,211.866 485,213.5C 481.358,218.642 477.525,223.642 473.5,228.5C 477.445,229.491 481.445,229.824 485.5,229.5C 485.5,231.167 485.5,232.833 485.5,234.5C 478.833,234.5 472.167,234.5 465.5,234.5C 465.34,232.801 465.506,231.134 466,229.5C 469.642,224.358 473.475,219.358 477.5,214.5C 473.893,213.511 470.226,213.177 466.5,213.5C 466.5,211.833 466.5,210.167 466.5,208.5 Z"/></g>
<g><path style="opacity:1" fill="#fe51ee" d="M 252.5,208.5 C 254.261,216.325 255.428,224.325 256,232.5C 248.022,242.645 239.856,252.645 231.5,262.5C 231.624,263.107 231.957,263.44 232.5,263.5C 230.839,266.218 228.839,267.884 226.5,268.5C 235.744,248.685 244.411,228.685 252.5,208.5 Z"/></g>
<g><path style="opacity:1" fill="#efefef" d="M 379.5,214.5 C 382.685,214.02 385.519,214.686 388,216.5C 388.667,219.833 388.667,223.167 388,226.5C 384.667,229.167 381.333,229.167 378,226.5C 376.994,222.198 377.494,218.198 379.5,214.5 Z"/></g>
<g><path style="opacity:1" fill="#444444" d="M 337.5,249.5 C 345.709,248.352 348.042,251.352 344.5,258.5C 345.373,260.413 346.373,262.247 347.5,264C 345.338,263.175 343.672,261.508 342.5,259C 341.552,258.517 340.552,258.351 339.5,258.5C 339.799,260.604 339.466,262.604 338.5,264.5C 337.506,259.544 337.173,254.544 337.5,249.5 Z"/></g>
<g><path style="opacity:1" fill="#484848" d="M 327.5,249.5 C 336.705,250.598 336.705,251.432 327.5,252C 323.428,258.947 325.428,262.78 333.5,263.5C 325.217,265.333 322.05,262 324,253.5C 325.376,252.295 326.542,250.962 327.5,249.5 Z"/></g>
<g><path style="opacity:1" fill="#555555" d="M 350.5,249.5 C 351.675,249.281 352.675,249.614 353.5,250.5C 354.716,254.321 356.216,257.988 358,261.5C 359.402,257.793 360.902,254.126 362.5,250.5C 363.325,249.614 364.325,249.281 365.5,249.5C 365.827,254.544 365.494,259.544 364.5,264.5C 363.673,260.541 363.173,256.541 363,252.5C 361.643,256.746 359.81,260.746 357.5,264.5C 355.731,261.294 354.231,257.961 353,254.5C 352.824,257.882 352.324,261.215 351.5,264.5C 350.506,259.544 350.173,254.544 350.5,249.5 Z"/></g>
<g><path style="opacity:1" fill="#f3f3f3" d="M 339.5,251.5 C 341.199,251.34 342.866,251.506 344.5,252C 345.833,253.333 345.833,254.667 344.5,256C 342.866,256.494 341.199,256.66 339.5,256.5C 339.5,254.833 339.5,253.167 339.5,251.5 Z"/></g>
</svg>
